<mxfile host="app.diagrams.net" agent="Mozilla/5.0 (Windows NT 10.0; Win64; x64) AppleWebKit/537.36 (KHTML, like Gecko) Chrome/124.0.0.0 Safari/537.36" version="24.8.3">
  <diagram name="Page-1" id="-I8Os0yP6FD-gqHAMfXH">
    <mxGraphModel dx="2014" dy="1259" grid="0" gridSize="10" guides="1" tooltips="1" connect="1" arrows="1" fold="1" page="0" pageScale="1" pageWidth="3300" pageHeight="4681" math="0" shadow="0">
      <root>
        <mxCell id="0" />
        <mxCell id="1" parent="0" />
        <mxCell id="T8L3gJOPpO_TKHeS3PGI-1" value="Lending page" style="rounded=0;whiteSpace=wrap;html=1;hachureGap=4;fontFamily=Architects Daughter;fontSource=https%3A%2F%2Ffonts.googleapis.com%2Fcss%3Ffamily%3DArchitects%2BDaughter;" vertex="1" parent="1">
          <mxGeometry x="-110" y="-69" width="120" height="60" as="geometry" />
        </mxCell>
        <mxCell id="T8L3gJOPpO_TKHeS3PGI-2" value="Other courses" style="rounded=0;whiteSpace=wrap;html=1;hachureGap=4;fontFamily=Architects Daughter;fontSource=https%3A%2F%2Ffonts.googleapis.com%2Fcss%3Ffamily%3DArchitects%2BDaughter;" vertex="1" parent="1">
          <mxGeometry x="-305" y="28" width="120" height="60" as="geometry" />
        </mxCell>
        <mxCell id="T8L3gJOPpO_TKHeS3PGI-5" value="" style="endArrow=classic;html=1;rounded=1;hachureGap=4;fontFamily=Architects Daughter;fontSource=https%3A%2F%2Ffonts.googleapis.com%2Fcss%3Ffamily%3DArchitects%2BDaughter;fontSize=12;startSize=8;endSize=8;exitX=0.5;exitY=1;exitDx=0;exitDy=0;entryX=0.5;entryY=0;entryDx=0;entryDy=0;edgeStyle=orthogonalEdgeStyle;curved=0;" edge="1" parent="1" source="T8L3gJOPpO_TKHeS3PGI-1" target="T8L3gJOPpO_TKHeS3PGI-2">
          <mxGeometry width="50" height="50" relative="1" as="geometry">
            <mxPoint x="-183" y="55" as="sourcePoint" />
            <mxPoint x="-63" y="104" as="targetPoint" />
          </mxGeometry>
        </mxCell>
        <mxCell id="T8L3gJOPpO_TKHeS3PGI-17" value="" style="group" vertex="1" connectable="0" parent="1">
          <mxGeometry x="-390" y="157" width="280" height="64" as="geometry" />
        </mxCell>
        <mxCell id="T8L3gJOPpO_TKHeS3PGI-12" value="Pyhon" style="ellipse;whiteSpace=wrap;html=1;hachureGap=4;fontFamily=Architects Daughter;fontSource=https%3A%2F%2Ffonts.googleapis.com%2Fcss%3Ffamily%3DArchitects%2BDaughter;" vertex="1" parent="T8L3gJOPpO_TKHeS3PGI-17">
          <mxGeometry y="2.3132530120481922" width="67.06586826347305" height="61.6867469879518" as="geometry" />
        </mxCell>
        <mxCell id="T8L3gJOPpO_TKHeS3PGI-13" value="Dj&lt;span style=&quot;color: rgba(0, 0, 0, 0); font-family: monospace; font-size: 0px; text-align: start; text-wrap: nowrap;&quot;&gt;%3CmxGraphModel%3E%3Croot%3E%3CmxCell%20id%3D%220%22%2F%3E%3CmxCell%20id%3D%221%22%20parent%3D%220%22%2F%3E%3CmxCell%20id%3D%222%22%20value%3D%22Pyhon%22%20style%3D%22ellipse%3BwhiteSpace%3Dwrap%3Bhtml%3D1%3BhachureGap%3D4%3BfontFamily%3DArchitects%20Daughter%3BfontSource%3Dhttps%253A%252F%252Ffonts.googleapis.com%252Fcss%253Ffamily%253DArchitects%252BDaughter%3B%22%20vertex%3D%221%22%20parent%3D%221%22%3E%3CmxGeometry%20x%3D%22-565%22%20y%3D%22126%22%20width%3D%22120%22%20height%3D%2280%22%20as%3D%22geometry%22%2F%3E%3C%2FmxCell%3E%3C%2Froot%3E%3C%2FmxGraphModel%3E&lt;/span&gt;ango" style="ellipse;whiteSpace=wrap;html=1;hachureGap=4;fontFamily=Architects Daughter;fontSource=https%3A%2F%2Ffonts.googleapis.com%2Fcss%3Ffamily%3DArchitects%2BDaughter;" vertex="1" parent="T8L3gJOPpO_TKHeS3PGI-17">
          <mxGeometry x="70.97804391217565" width="67.06586826347305" height="61.6867469879518" as="geometry" />
        </mxCell>
        <mxCell id="T8L3gJOPpO_TKHeS3PGI-14" value="React.js" style="ellipse;whiteSpace=wrap;html=1;hachureGap=4;fontFamily=Architects Daughter;fontSource=https%3A%2F%2Ffonts.googleapis.com%2Fcss%3Ffamily%3DArchitects%2BDaughter;" vertex="1" parent="T8L3gJOPpO_TKHeS3PGI-17">
          <mxGeometry x="141.9560878243513" width="67.06586826347305" height="61.6867469879518" as="geometry" />
        </mxCell>
        <mxCell id="T8L3gJOPpO_TKHeS3PGI-16" value="...etc" style="ellipse;whiteSpace=wrap;html=1;hachureGap=4;fontFamily=Architects Daughter;fontSource=https%3A%2F%2Ffonts.googleapis.com%2Fcss%3Ffamily%3DArchitects%2BDaughter;" vertex="1" parent="T8L3gJOPpO_TKHeS3PGI-17">
          <mxGeometry x="212.93413173652692" y="2.3132530120481922" width="67.06586826347305" height="61.6867469879518" as="geometry" />
        </mxCell>
        <mxCell id="T8L3gJOPpO_TKHeS3PGI-18" style="edgeStyle=none;curved=1;rounded=0;sketch=1;hachureGap=4;jiggle=2;curveFitting=1;orthogonalLoop=1;jettySize=auto;html=1;exitX=1;exitY=0.5;exitDx=0;exitDy=0;fontFamily=Architects Daughter;fontSource=https%3A%2F%2Ffonts.googleapis.com%2Fcss%3Ffamily%3DArchitects%2BDaughter;fontSize=12;startSize=8;endSize=8;" edge="1" parent="T8L3gJOPpO_TKHeS3PGI-17" source="T8L3gJOPpO_TKHeS3PGI-13" target="T8L3gJOPpO_TKHeS3PGI-13">
          <mxGeometry relative="1" as="geometry" />
        </mxCell>
        <mxCell id="T8L3gJOPpO_TKHeS3PGI-19" value="" style="endArrow=classic;html=1;rounded=1;hachureGap=4;fontFamily=Architects Daughter;fontSource=https%3A%2F%2Ffonts.googleapis.com%2Fcss%3Ffamily%3DArchitects%2BDaughter;fontSize=12;startSize=8;endSize=8;exitX=0.5;exitY=1;exitDx=0;exitDy=0;entryX=0.5;entryY=0;entryDx=0;entryDy=0;edgeStyle=orthogonalEdgeStyle;curved=0;" edge="1" parent="1" source="T8L3gJOPpO_TKHeS3PGI-2" target="T8L3gJOPpO_TKHeS3PGI-12">
          <mxGeometry width="50" height="50" relative="1" as="geometry">
            <mxPoint x="-374" y="32" as="sourcePoint" />
            <mxPoint x="-613" y="74" as="targetPoint" />
          </mxGeometry>
        </mxCell>
        <mxCell id="T8L3gJOPpO_TKHeS3PGI-20" value="" style="endArrow=classic;html=1;rounded=1;hachureGap=4;fontFamily=Architects Daughter;fontSource=https%3A%2F%2Ffonts.googleapis.com%2Fcss%3Ffamily%3DArchitects%2BDaughter;fontSize=12;startSize=8;endSize=8;exitX=0.5;exitY=1;exitDx=0;exitDy=0;entryX=0.5;entryY=0;entryDx=0;entryDy=0;edgeStyle=orthogonalEdgeStyle;curved=0;" edge="1" parent="1" source="T8L3gJOPpO_TKHeS3PGI-2" target="T8L3gJOPpO_TKHeS3PGI-13">
          <mxGeometry width="50" height="50" relative="1" as="geometry">
            <mxPoint x="-313" y="105" as="sourcePoint" />
            <mxPoint x="-419" y="166" as="targetPoint" />
          </mxGeometry>
        </mxCell>
        <mxCell id="T8L3gJOPpO_TKHeS3PGI-21" value="" style="endArrow=classic;html=1;rounded=1;hachureGap=4;fontFamily=Architects Daughter;fontSource=https%3A%2F%2Ffonts.googleapis.com%2Fcss%3Ffamily%3DArchitects%2BDaughter;fontSize=12;startSize=8;endSize=8;exitX=0.5;exitY=1;exitDx=0;exitDy=0;entryX=0.5;entryY=0;entryDx=0;entryDy=0;edgeStyle=orthogonalEdgeStyle;curved=0;" edge="1" parent="1" source="T8L3gJOPpO_TKHeS3PGI-2" target="T8L3gJOPpO_TKHeS3PGI-14">
          <mxGeometry width="50" height="50" relative="1" as="geometry">
            <mxPoint x="-313" y="105" as="sourcePoint" />
            <mxPoint x="-348" y="164" as="targetPoint" />
          </mxGeometry>
        </mxCell>
        <mxCell id="T8L3gJOPpO_TKHeS3PGI-22" value="" style="endArrow=classic;html=1;rounded=1;hachureGap=4;fontFamily=Architects Daughter;fontSource=https%3A%2F%2Ffonts.googleapis.com%2Fcss%3Ffamily%3DArchitects%2BDaughter;fontSize=12;startSize=8;endSize=8;exitX=0.5;exitY=1;exitDx=0;exitDy=0;entryX=0.5;entryY=0;entryDx=0;entryDy=0;edgeStyle=orthogonalEdgeStyle;curved=0;" edge="1" parent="1" source="T8L3gJOPpO_TKHeS3PGI-2" target="T8L3gJOPpO_TKHeS3PGI-16">
          <mxGeometry width="50" height="50" relative="1" as="geometry">
            <mxPoint x="-313" y="105" as="sourcePoint" />
            <mxPoint x="-278" y="164" as="targetPoint" />
          </mxGeometry>
        </mxCell>
        <mxCell id="T8L3gJOPpO_TKHeS3PGI-59" value="" style="endArrow=classic;html=1;rounded=1;hachureGap=4;fontFamily=Architects Daughter;fontSource=https%3A%2F%2Ffonts.googleapis.com%2Fcss%3Ffamily%3DArchitects%2BDaughter;fontSize=12;startSize=8;endSize=8;exitX=0.5;exitY=1;exitDx=0;exitDy=0;entryX=0.5;entryY=0;entryDx=0;entryDy=0;edgeStyle=orthogonalEdgeStyle;curved=0;entryPerimeter=0;" edge="1" parent="1" source="T8L3gJOPpO_TKHeS3PGI-12" target="T8L3gJOPpO_TKHeS3PGI-115">
          <mxGeometry width="50" height="50" relative="1" as="geometry">
            <mxPoint x="-225" y="108" as="sourcePoint" />
            <mxPoint x="-403" y="269" as="targetPoint" />
          </mxGeometry>
        </mxCell>
        <mxCell id="T8L3gJOPpO_TKHeS3PGI-60" value="" style="endArrow=classic;html=1;rounded=1;hachureGap=4;fontFamily=Architects Daughter;fontSource=https%3A%2F%2Ffonts.googleapis.com%2Fcss%3Ffamily%3DArchitects%2BDaughter;fontSize=12;startSize=8;endSize=8;exitX=0.5;exitY=1;exitDx=0;exitDy=0;entryX=0.5;entryY=0;entryDx=0;entryDy=0;edgeStyle=orthogonalEdgeStyle;curved=0;entryPerimeter=0;" edge="1" parent="1" source="T8L3gJOPpO_TKHeS3PGI-13" target="T8L3gJOPpO_TKHeS3PGI-125">
          <mxGeometry width="50" height="50" relative="1" as="geometry">
            <mxPoint x="-235" y="98" as="sourcePoint" />
            <mxPoint x="-306" y="269" as="targetPoint" />
          </mxGeometry>
        </mxCell>
        <mxCell id="T8L3gJOPpO_TKHeS3PGI-61" value="" style="endArrow=classic;html=1;rounded=1;hachureGap=4;fontFamily=Architects Daughter;fontSource=https%3A%2F%2Ffonts.googleapis.com%2Fcss%3Ffamily%3DArchitects%2BDaughter;fontSize=12;startSize=8;endSize=8;exitX=0.5;exitY=1;exitDx=0;exitDy=0;entryX=0.5;entryY=0;entryDx=0;entryDy=0;edgeStyle=orthogonalEdgeStyle;curved=0;entryPerimeter=0;" edge="1" parent="1" source="T8L3gJOPpO_TKHeS3PGI-14" target="T8L3gJOPpO_TKHeS3PGI-130">
          <mxGeometry width="50" height="50" relative="1" as="geometry">
            <mxPoint x="-275" y="229" as="sourcePoint" />
            <mxPoint x="-204.00000000000023" y="269" as="targetPoint" />
          </mxGeometry>
        </mxCell>
        <mxCell id="T8L3gJOPpO_TKHeS3PGI-62" value="" style="endArrow=classic;html=1;rounded=1;hachureGap=4;fontFamily=Architects Daughter;fontSource=https%3A%2F%2Ffonts.googleapis.com%2Fcss%3Ffamily%3DArchitects%2BDaughter;fontSize=12;startSize=8;endSize=8;entryX=0.5;entryY=0;entryDx=0;entryDy=0;edgeStyle=orthogonalEdgeStyle;curved=0;entryPerimeter=0;exitX=0.5;exitY=1;exitDx=0;exitDy=0;" edge="1" parent="1" source="T8L3gJOPpO_TKHeS3PGI-16" target="T8L3gJOPpO_TKHeS3PGI-135">
          <mxGeometry width="50" height="50" relative="1" as="geometry">
            <mxPoint x="-194" y="226" as="sourcePoint" />
            <mxPoint x="-107.00000000000023" y="269" as="targetPoint" />
          </mxGeometry>
        </mxCell>
        <mxCell id="T8L3gJOPpO_TKHeS3PGI-63" value="unive courses" style="rounded=0;whiteSpace=wrap;html=1;hachureGap=4;fontFamily=Architects Daughter;fontSource=https%3A%2F%2Ffonts.googleapis.com%2Fcss%3Ffamily%3DArchitects%2BDaughter;" vertex="1" parent="1">
          <mxGeometry x="104" y="28" width="120" height="60" as="geometry" />
        </mxCell>
        <mxCell id="T8L3gJOPpO_TKHeS3PGI-64" value="" style="group" vertex="1" connectable="0" parent="1">
          <mxGeometry x="24" y="159" width="280" height="64" as="geometry" />
        </mxCell>
        <mxCell id="T8L3gJOPpO_TKHeS3PGI-65" value="Algebra" style="ellipse;whiteSpace=wrap;html=1;hachureGap=4;fontFamily=Architects Daughter;fontSource=https%3A%2F%2Ffonts.googleapis.com%2Fcss%3Ffamily%3DArchitects%2BDaughter;" vertex="1" parent="T8L3gJOPpO_TKHeS3PGI-64">
          <mxGeometry y="2.3132530120481922" width="67.06586826347305" height="61.6867469879518" as="geometry" />
        </mxCell>
        <mxCell id="T8L3gJOPpO_TKHeS3PGI-66" value="Algo" style="ellipse;whiteSpace=wrap;html=1;hachureGap=4;fontFamily=Architects Daughter;fontSource=https%3A%2F%2Ffonts.googleapis.com%2Fcss%3Ffamily%3DArchitects%2BDaughter;" vertex="1" parent="T8L3gJOPpO_TKHeS3PGI-64">
          <mxGeometry x="70.97804391217565" width="67.06586826347305" height="61.6867469879518" as="geometry" />
        </mxCell>
        <mxCell id="T8L3gJOPpO_TKHeS3PGI-67" value="Os" style="ellipse;whiteSpace=wrap;html=1;hachureGap=4;fontFamily=Architects Daughter;fontSource=https%3A%2F%2Ffonts.googleapis.com%2Fcss%3Ffamily%3DArchitects%2BDaughter;" vertex="1" parent="T8L3gJOPpO_TKHeS3PGI-64">
          <mxGeometry x="141.9560878243513" width="67.06586826347305" height="61.6867469879518" as="geometry" />
        </mxCell>
        <mxCell id="T8L3gJOPpO_TKHeS3PGI-68" value="...etc" style="ellipse;whiteSpace=wrap;html=1;hachureGap=4;fontFamily=Architects Daughter;fontSource=https%3A%2F%2Ffonts.googleapis.com%2Fcss%3Ffamily%3DArchitects%2BDaughter;" vertex="1" parent="T8L3gJOPpO_TKHeS3PGI-64">
          <mxGeometry x="212.93413173652692" y="2.3132530120481922" width="67.06586826347305" height="61.6867469879518" as="geometry" />
        </mxCell>
        <mxCell id="T8L3gJOPpO_TKHeS3PGI-69" style="edgeStyle=none;curved=1;rounded=0;sketch=1;hachureGap=4;jiggle=2;curveFitting=1;orthogonalLoop=1;jettySize=auto;html=1;exitX=1;exitY=0.5;exitDx=0;exitDy=0;fontFamily=Architects Daughter;fontSource=https%3A%2F%2Ffonts.googleapis.com%2Fcss%3Ffamily%3DArchitects%2BDaughter;fontSize=12;startSize=8;endSize=8;" edge="1" parent="T8L3gJOPpO_TKHeS3PGI-64" source="T8L3gJOPpO_TKHeS3PGI-66" target="T8L3gJOPpO_TKHeS3PGI-66">
          <mxGeometry relative="1" as="geometry" />
        </mxCell>
        <mxCell id="T8L3gJOPpO_TKHeS3PGI-70" value="" style="endArrow=classic;html=1;rounded=1;hachureGap=4;fontFamily=Architects Daughter;fontSource=https%3A%2F%2Ffonts.googleapis.com%2Fcss%3Ffamily%3DArchitects%2BDaughter;fontSize=12;startSize=8;endSize=8;exitX=0.5;exitY=1;exitDx=0;exitDy=0;entryX=0.5;entryY=0;entryDx=0;entryDy=0;edgeStyle=orthogonalEdgeStyle;curved=0;" edge="1" parent="1" source="T8L3gJOPpO_TKHeS3PGI-63" target="T8L3gJOPpO_TKHeS3PGI-65">
          <mxGeometry width="50" height="50" relative="1" as="geometry">
            <mxPoint x="40" y="34" as="sourcePoint" />
            <mxPoint x="-199" y="76" as="targetPoint" />
          </mxGeometry>
        </mxCell>
        <mxCell id="T8L3gJOPpO_TKHeS3PGI-71" value="" style="endArrow=classic;html=1;rounded=1;hachureGap=4;fontFamily=Architects Daughter;fontSource=https%3A%2F%2Ffonts.googleapis.com%2Fcss%3Ffamily%3DArchitects%2BDaughter;fontSize=12;startSize=8;endSize=8;exitX=0.5;exitY=1;exitDx=0;exitDy=0;entryX=0.5;entryY=0;entryDx=0;entryDy=0;edgeStyle=orthogonalEdgeStyle;curved=0;" edge="1" parent="1" source="T8L3gJOPpO_TKHeS3PGI-63" target="T8L3gJOPpO_TKHeS3PGI-66">
          <mxGeometry width="50" height="50" relative="1" as="geometry">
            <mxPoint x="101" y="107" as="sourcePoint" />
            <mxPoint x="-5" y="168" as="targetPoint" />
          </mxGeometry>
        </mxCell>
        <mxCell id="T8L3gJOPpO_TKHeS3PGI-72" value="" style="endArrow=classic;html=1;rounded=1;hachureGap=4;fontFamily=Architects Daughter;fontSource=https%3A%2F%2Ffonts.googleapis.com%2Fcss%3Ffamily%3DArchitects%2BDaughter;fontSize=12;startSize=8;endSize=8;exitX=0.5;exitY=1;exitDx=0;exitDy=0;entryX=0.5;entryY=0;entryDx=0;entryDy=0;edgeStyle=orthogonalEdgeStyle;curved=0;" edge="1" parent="1" source="T8L3gJOPpO_TKHeS3PGI-63" target="T8L3gJOPpO_TKHeS3PGI-67">
          <mxGeometry width="50" height="50" relative="1" as="geometry">
            <mxPoint x="101" y="107" as="sourcePoint" />
            <mxPoint x="66" y="166" as="targetPoint" />
          </mxGeometry>
        </mxCell>
        <mxCell id="T8L3gJOPpO_TKHeS3PGI-73" value="" style="endArrow=classic;html=1;rounded=1;hachureGap=4;fontFamily=Architects Daughter;fontSource=https%3A%2F%2Ffonts.googleapis.com%2Fcss%3Ffamily%3DArchitects%2BDaughter;fontSize=12;startSize=8;endSize=8;exitX=0.5;exitY=1;exitDx=0;exitDy=0;entryX=0.5;entryY=0;entryDx=0;entryDy=0;edgeStyle=orthogonalEdgeStyle;curved=0;" edge="1" parent="1" source="T8L3gJOPpO_TKHeS3PGI-63" target="T8L3gJOPpO_TKHeS3PGI-68">
          <mxGeometry width="50" height="50" relative="1" as="geometry">
            <mxPoint x="101" y="107" as="sourcePoint" />
            <mxPoint x="136" y="166" as="targetPoint" />
          </mxGeometry>
        </mxCell>
        <mxCell id="T8L3gJOPpO_TKHeS3PGI-97" value="" style="endArrow=classic;html=1;rounded=1;hachureGap=4;fontFamily=Architects Daughter;fontSource=https%3A%2F%2Ffonts.googleapis.com%2Fcss%3Ffamily%3DArchitects%2BDaughter;fontSize=12;startSize=8;endSize=8;exitX=0.5;exitY=1;exitDx=0;exitDy=0;entryX=0.5;entryY=0;entryDx=0;entryDy=0;edgeStyle=orthogonalEdgeStyle;curved=0;entryPerimeter=0;" edge="1" parent="1" source="T8L3gJOPpO_TKHeS3PGI-65" target="T8L3gJOPpO_TKHeS3PGI-142">
          <mxGeometry width="50" height="50" relative="1" as="geometry">
            <mxPoint x="189" y="110" as="sourcePoint" />
            <mxPoint x="10.999999999999773" y="271" as="targetPoint" />
          </mxGeometry>
        </mxCell>
        <mxCell id="T8L3gJOPpO_TKHeS3PGI-98" value="" style="endArrow=classic;html=1;rounded=1;hachureGap=4;fontFamily=Architects Daughter;fontSource=https%3A%2F%2Ffonts.googleapis.com%2Fcss%3Ffamily%3DArchitects%2BDaughter;fontSize=12;startSize=8;endSize=8;exitX=0.5;exitY=1;exitDx=0;exitDy=0;entryX=0.5;entryY=0;entryDx=0;entryDy=0;edgeStyle=orthogonalEdgeStyle;curved=0;entryPerimeter=0;" edge="1" parent="1" source="T8L3gJOPpO_TKHeS3PGI-66" target="T8L3gJOPpO_TKHeS3PGI-147">
          <mxGeometry width="50" height="50" relative="1" as="geometry">
            <mxPoint x="179" y="100" as="sourcePoint" />
            <mxPoint x="108" y="271" as="targetPoint" />
          </mxGeometry>
        </mxCell>
        <mxCell id="T8L3gJOPpO_TKHeS3PGI-99" value="" style="endArrow=classic;html=1;rounded=1;hachureGap=4;fontFamily=Architects Daughter;fontSource=https%3A%2F%2Ffonts.googleapis.com%2Fcss%3Ffamily%3DArchitects%2BDaughter;fontSize=12;startSize=8;endSize=8;exitX=0.5;exitY=1;exitDx=0;exitDy=0;entryX=0.5;entryY=0;entryDx=0;entryDy=0;edgeStyle=orthogonalEdgeStyle;curved=0;entryPerimeter=0;" edge="1" parent="1" source="T8L3gJOPpO_TKHeS3PGI-67" target="T8L3gJOPpO_TKHeS3PGI-152">
          <mxGeometry width="50" height="50" relative="1" as="geometry">
            <mxPoint x="139" y="231" as="sourcePoint" />
            <mxPoint x="210" y="271" as="targetPoint" />
          </mxGeometry>
        </mxCell>
        <mxCell id="T8L3gJOPpO_TKHeS3PGI-100" value="" style="endArrow=classic;html=1;rounded=1;hachureGap=4;fontFamily=Architects Daughter;fontSource=https%3A%2F%2Ffonts.googleapis.com%2Fcss%3Ffamily%3DArchitects%2BDaughter;fontSize=12;startSize=8;endSize=8;entryX=0.5;entryY=0;entryDx=0;entryDy=0;edgeStyle=orthogonalEdgeStyle;curved=0;entryPerimeter=0;exitX=0.5;exitY=1;exitDx=0;exitDy=0;" edge="1" parent="1" source="T8L3gJOPpO_TKHeS3PGI-68" target="T8L3gJOPpO_TKHeS3PGI-157">
          <mxGeometry width="50" height="50" relative="1" as="geometry">
            <mxPoint x="220" y="228" as="sourcePoint" />
            <mxPoint x="307" y="271" as="targetPoint" />
          </mxGeometry>
        </mxCell>
        <mxCell id="T8L3gJOPpO_TKHeS3PGI-101" value="" style="endArrow=classic;html=1;rounded=1;hachureGap=4;fontFamily=Architects Daughter;fontSource=https%3A%2F%2Ffonts.googleapis.com%2Fcss%3Ffamily%3DArchitects%2BDaughter;fontSize=12;startSize=8;endSize=8;exitX=0.5;exitY=1;exitDx=0;exitDy=0;entryX=0.5;entryY=0;entryDx=0;entryDy=0;edgeStyle=orthogonalEdgeStyle;curved=0;" edge="1" parent="1" source="T8L3gJOPpO_TKHeS3PGI-1" target="T8L3gJOPpO_TKHeS3PGI-63">
          <mxGeometry width="50" height="50" relative="1" as="geometry">
            <mxPoint x="48" y="47" as="sourcePoint" />
            <mxPoint x="-113" y="82" as="targetPoint" />
          </mxGeometry>
        </mxCell>
        <mxCell id="T8L3gJOPpO_TKHeS3PGI-103" value="Content Managment System" style="rounded=0;whiteSpace=wrap;html=1;hachureGap=4;fontFamily=Architects Daughter;fontSource=https%3A%2F%2Ffonts.googleapis.com%2Fcss%3Ffamily%3DArchitects%2BDaughter;" vertex="1" parent="1">
          <mxGeometry x="-429" y="580" width="795" height="43" as="geometry" />
        </mxCell>
        <mxCell id="T8L3gJOPpO_TKHeS3PGI-104" value="" style="endArrow=none;html=1;rounded=0;hachureGap=4;fontFamily=Architects Daughter;fontSource=https%3A%2F%2Ffonts.googleapis.com%2Fcss%3Ffamily%3DArchitects%2BDaughter;fontSize=12;startSize=8;endSize=8;curved=1;" edge="1" parent="1">
          <mxGeometry relative="1" as="geometry">
            <mxPoint x="-435" y="534" as="sourcePoint" />
            <mxPoint x="381" y="534" as="targetPoint" />
          </mxGeometry>
        </mxCell>
        <mxCell id="T8L3gJOPpO_TKHeS3PGI-106" value="" style="endArrow=classic;html=1;rounded=1;hachureGap=4;fontFamily=Architects Daughter;fontSource=https%3A%2F%2Ffonts.googleapis.com%2Fcss%3Ffamily%3DArchitects%2BDaughter;fontSize=12;startSize=8;endSize=8;exitX=0.5;exitY=0;exitDx=0;exitDy=0;" edge="1" parent="1" source="T8L3gJOPpO_TKHeS3PGI-103">
          <mxGeometry width="50" height="50" relative="1" as="geometry">
            <mxPoint x="-233" y="635" as="sourcePoint" />
            <mxPoint x="-31" y="534" as="targetPoint" />
          </mxGeometry>
        </mxCell>
        <mxCell id="T8L3gJOPpO_TKHeS3PGI-107" value="CRUD On Files" style="edgeLabel;html=1;align=center;verticalAlign=middle;resizable=0;points=[];fontSize=12;sketch=1;hachureGap=4;jiggle=2;curveFitting=1;fontFamily=Architects Daughter;fontSource=https%3A%2F%2Ffonts.googleapis.com%2Fcss%3Ffamily%3DArchitects%2BDaughter;" vertex="1" connectable="0" parent="T8L3gJOPpO_TKHeS3PGI-106">
          <mxGeometry x="-0.2606" y="2" relative="1" as="geometry">
            <mxPoint as="offset" />
          </mxGeometry>
        </mxCell>
        <mxCell id="T8L3gJOPpO_TKHeS3PGI-108" value="Administration" style="rounded=0;whiteSpace=wrap;html=1;hachureGap=4;fontFamily=Architects Daughter;fontSource=https%3A%2F%2Ffonts.googleapis.com%2Fcss%3Ffamily%3DArchitects%2BDaughter;" vertex="1" parent="1">
          <mxGeometry x="-91.5" y="664" width="120" height="42" as="geometry" />
        </mxCell>
        <mxCell id="T8L3gJOPpO_TKHeS3PGI-109" value="" style="endArrow=classic;html=1;rounded=1;hachureGap=4;fontFamily=Architects Daughter;fontSource=https%3A%2F%2Ffonts.googleapis.com%2Fcss%3Ffamily%3DArchitects%2BDaughter;fontSize=12;startSize=8;endSize=8;entryX=0.5;entryY=1;entryDx=0;entryDy=0;edgeStyle=orthogonalEdgeStyle;curved=0;exitX=0.5;exitY=0;exitDx=0;exitDy=0;" edge="1" parent="1" source="T8L3gJOPpO_TKHeS3PGI-108" target="T8L3gJOPpO_TKHeS3PGI-103">
          <mxGeometry width="50" height="50" relative="1" as="geometry">
            <mxPoint x="-235" y="723" as="sourcePoint" />
            <mxPoint x="-198" y="775" as="targetPoint" />
          </mxGeometry>
        </mxCell>
        <mxCell id="T8L3gJOPpO_TKHeS3PGI-139" value="" style="group" vertex="1" connectable="0" parent="1">
          <mxGeometry x="-426" y="272.002972972973" width="369" height="96.02702702702703" as="geometry" />
        </mxCell>
        <mxCell id="T8L3gJOPpO_TKHeS3PGI-123" value="" style="group" vertex="1" connectable="0" parent="T8L3gJOPpO_TKHeS3PGI-139">
          <mxGeometry width="82" height="92.02702702702703" as="geometry" />
        </mxCell>
        <mxCell id="T8L3gJOPpO_TKHeS3PGI-115" value="Html,css&lt;div&gt;,js&lt;/div&gt;" style="whiteSpace=wrap;html=1;shape=mxgraph.basic.document;hachureGap=4;fontFamily=Architects Daughter;fontSource=https%3A%2F%2Ffonts.googleapis.com%2Fcss%3Ffamily%3DArchitects%2BDaughter;" vertex="1" parent="T8L3gJOPpO_TKHeS3PGI-123">
          <mxGeometry width="52" height="62.027027027027025" as="geometry" />
        </mxCell>
        <mxCell id="T8L3gJOPpO_TKHeS3PGI-116" value="Html,css&lt;div&gt;,js&lt;/div&gt;" style="whiteSpace=wrap;html=1;shape=mxgraph.basic.document;hachureGap=4;fontFamily=Architects Daughter;fontSource=https%3A%2F%2Ffonts.googleapis.com%2Fcss%3Ffamily%3DArchitects%2BDaughter;" vertex="1" parent="T8L3gJOPpO_TKHeS3PGI-123">
          <mxGeometry x="10" y="10" width="52" height="62.027027027027025" as="geometry" />
        </mxCell>
        <mxCell id="T8L3gJOPpO_TKHeS3PGI-117" value="Html,css&lt;div&gt;,js&lt;/div&gt;" style="whiteSpace=wrap;html=1;shape=mxgraph.basic.document;hachureGap=4;fontFamily=Architects Daughter;fontSource=https%3A%2F%2Ffonts.googleapis.com%2Fcss%3Ffamily%3DArchitects%2BDaughter;" vertex="1" parent="T8L3gJOPpO_TKHeS3PGI-123">
          <mxGeometry x="20" y="20" width="52" height="62.027027027027025" as="geometry" />
        </mxCell>
        <mxCell id="T8L3gJOPpO_TKHeS3PGI-118" value="Html,css&lt;div&gt;,js&lt;/div&gt;" style="whiteSpace=wrap;html=1;shape=mxgraph.basic.document;hachureGap=4;fontFamily=Architects Daughter;fontSource=https%3A%2F%2Ffonts.googleapis.com%2Fcss%3Ffamily%3DArchitects%2BDaughter;" vertex="1" parent="T8L3gJOPpO_TKHeS3PGI-123">
          <mxGeometry x="30" y="30" width="52" height="62.027027027027025" as="geometry" />
        </mxCell>
        <mxCell id="T8L3gJOPpO_TKHeS3PGI-124" value="" style="group" vertex="1" connectable="0" parent="T8L3gJOPpO_TKHeS3PGI-139">
          <mxGeometry x="96" y="4" width="82" height="92.02702702702703" as="geometry" />
        </mxCell>
        <mxCell id="T8L3gJOPpO_TKHeS3PGI-125" value="Html,css&lt;div&gt;,js&lt;/div&gt;" style="whiteSpace=wrap;html=1;shape=mxgraph.basic.document;hachureGap=4;fontFamily=Architects Daughter;fontSource=https%3A%2F%2Ffonts.googleapis.com%2Fcss%3Ffamily%3DArchitects%2BDaughter;" vertex="1" parent="T8L3gJOPpO_TKHeS3PGI-124">
          <mxGeometry width="52" height="62.027027027027025" as="geometry" />
        </mxCell>
        <mxCell id="T8L3gJOPpO_TKHeS3PGI-126" value="Html,css&lt;div&gt;,js&lt;/div&gt;" style="whiteSpace=wrap;html=1;shape=mxgraph.basic.document;hachureGap=4;fontFamily=Architects Daughter;fontSource=https%3A%2F%2Ffonts.googleapis.com%2Fcss%3Ffamily%3DArchitects%2BDaughter;" vertex="1" parent="T8L3gJOPpO_TKHeS3PGI-124">
          <mxGeometry x="10" y="10" width="52" height="62.027027027027025" as="geometry" />
        </mxCell>
        <mxCell id="T8L3gJOPpO_TKHeS3PGI-127" value="Html,css&lt;div&gt;,js&lt;/div&gt;" style="whiteSpace=wrap;html=1;shape=mxgraph.basic.document;hachureGap=4;fontFamily=Architects Daughter;fontSource=https%3A%2F%2Ffonts.googleapis.com%2Fcss%3Ffamily%3DArchitects%2BDaughter;" vertex="1" parent="T8L3gJOPpO_TKHeS3PGI-124">
          <mxGeometry x="20" y="20" width="52" height="62.027027027027025" as="geometry" />
        </mxCell>
        <mxCell id="T8L3gJOPpO_TKHeS3PGI-128" value="Html,css&lt;div&gt;,js&lt;/div&gt;" style="whiteSpace=wrap;html=1;shape=mxgraph.basic.document;hachureGap=4;fontFamily=Architects Daughter;fontSource=https%3A%2F%2Ffonts.googleapis.com%2Fcss%3Ffamily%3DArchitects%2BDaughter;" vertex="1" parent="T8L3gJOPpO_TKHeS3PGI-124">
          <mxGeometry x="30" y="30" width="52" height="62.027027027027025" as="geometry" />
        </mxCell>
        <mxCell id="T8L3gJOPpO_TKHeS3PGI-129" value="" style="group" vertex="1" connectable="0" parent="T8L3gJOPpO_TKHeS3PGI-139">
          <mxGeometry x="195" y="4" width="82" height="92.02702702702703" as="geometry" />
        </mxCell>
        <mxCell id="T8L3gJOPpO_TKHeS3PGI-130" value="Html,css&lt;div&gt;,js&lt;/div&gt;" style="whiteSpace=wrap;html=1;shape=mxgraph.basic.document;hachureGap=4;fontFamily=Architects Daughter;fontSource=https%3A%2F%2Ffonts.googleapis.com%2Fcss%3Ffamily%3DArchitects%2BDaughter;" vertex="1" parent="T8L3gJOPpO_TKHeS3PGI-129">
          <mxGeometry width="52" height="62.027027027027025" as="geometry" />
        </mxCell>
        <mxCell id="T8L3gJOPpO_TKHeS3PGI-131" value="Html,css&lt;div&gt;,js&lt;/div&gt;" style="whiteSpace=wrap;html=1;shape=mxgraph.basic.document;hachureGap=4;fontFamily=Architects Daughter;fontSource=https%3A%2F%2Ffonts.googleapis.com%2Fcss%3Ffamily%3DArchitects%2BDaughter;" vertex="1" parent="T8L3gJOPpO_TKHeS3PGI-129">
          <mxGeometry x="10" y="10" width="52" height="62.027027027027025" as="geometry" />
        </mxCell>
        <mxCell id="T8L3gJOPpO_TKHeS3PGI-132" value="Html,css&lt;div&gt;,js&lt;/div&gt;" style="whiteSpace=wrap;html=1;shape=mxgraph.basic.document;hachureGap=4;fontFamily=Architects Daughter;fontSource=https%3A%2F%2Ffonts.googleapis.com%2Fcss%3Ffamily%3DArchitects%2BDaughter;" vertex="1" parent="T8L3gJOPpO_TKHeS3PGI-129">
          <mxGeometry x="20" y="20" width="52" height="62.027027027027025" as="geometry" />
        </mxCell>
        <mxCell id="T8L3gJOPpO_TKHeS3PGI-133" value="Html,css&lt;div&gt;,js&lt;/div&gt;" style="whiteSpace=wrap;html=1;shape=mxgraph.basic.document;hachureGap=4;fontFamily=Architects Daughter;fontSource=https%3A%2F%2Ffonts.googleapis.com%2Fcss%3Ffamily%3DArchitects%2BDaughter;" vertex="1" parent="T8L3gJOPpO_TKHeS3PGI-129">
          <mxGeometry x="30" y="30" width="52" height="62.027027027027025" as="geometry" />
        </mxCell>
        <mxCell id="T8L3gJOPpO_TKHeS3PGI-134" value="" style="group" vertex="1" connectable="0" parent="T8L3gJOPpO_TKHeS3PGI-139">
          <mxGeometry x="287" y="4" width="82" height="92.02702702702703" as="geometry" />
        </mxCell>
        <mxCell id="T8L3gJOPpO_TKHeS3PGI-135" value="Html,css&lt;div&gt;,js&lt;/div&gt;" style="whiteSpace=wrap;html=1;shape=mxgraph.basic.document;hachureGap=4;fontFamily=Architects Daughter;fontSource=https%3A%2F%2Ffonts.googleapis.com%2Fcss%3Ffamily%3DArchitects%2BDaughter;" vertex="1" parent="T8L3gJOPpO_TKHeS3PGI-134">
          <mxGeometry width="52" height="62.027027027027025" as="geometry" />
        </mxCell>
        <mxCell id="T8L3gJOPpO_TKHeS3PGI-136" value="Html,css&lt;div&gt;,js&lt;/div&gt;" style="whiteSpace=wrap;html=1;shape=mxgraph.basic.document;hachureGap=4;fontFamily=Architects Daughter;fontSource=https%3A%2F%2Ffonts.googleapis.com%2Fcss%3Ffamily%3DArchitects%2BDaughter;" vertex="1" parent="T8L3gJOPpO_TKHeS3PGI-134">
          <mxGeometry x="10" y="10" width="52" height="62.027027027027025" as="geometry" />
        </mxCell>
        <mxCell id="T8L3gJOPpO_TKHeS3PGI-137" value="Html,css&lt;div&gt;,js&lt;/div&gt;" style="whiteSpace=wrap;html=1;shape=mxgraph.basic.document;hachureGap=4;fontFamily=Architects Daughter;fontSource=https%3A%2F%2Ffonts.googleapis.com%2Fcss%3Ffamily%3DArchitects%2BDaughter;" vertex="1" parent="T8L3gJOPpO_TKHeS3PGI-134">
          <mxGeometry x="20" y="20" width="52" height="62.027027027027025" as="geometry" />
        </mxCell>
        <mxCell id="T8L3gJOPpO_TKHeS3PGI-138" value="Html,css&lt;div&gt;,js&lt;/div&gt;" style="whiteSpace=wrap;html=1;shape=mxgraph.basic.document;hachureGap=4;fontFamily=Architects Daughter;fontSource=https%3A%2F%2Ffonts.googleapis.com%2Fcss%3Ffamily%3DArchitects%2BDaughter;" vertex="1" parent="T8L3gJOPpO_TKHeS3PGI-134">
          <mxGeometry x="30" y="30" width="52" height="62.027027027027025" as="geometry" />
        </mxCell>
        <mxCell id="T8L3gJOPpO_TKHeS3PGI-140" value="" style="group" vertex="1" connectable="0" parent="1">
          <mxGeometry x="-15" y="280.002972972973" width="369" height="96.02702702702703" as="geometry" />
        </mxCell>
        <mxCell id="T8L3gJOPpO_TKHeS3PGI-141" value="" style="group" vertex="1" connectable="0" parent="T8L3gJOPpO_TKHeS3PGI-140">
          <mxGeometry width="82" height="92.02702702702703" as="geometry" />
        </mxCell>
        <mxCell id="T8L3gJOPpO_TKHeS3PGI-142" value="Html,css&lt;div&gt;,js&lt;/div&gt;" style="whiteSpace=wrap;html=1;shape=mxgraph.basic.document;hachureGap=4;fontFamily=Architects Daughter;fontSource=https%3A%2F%2Ffonts.googleapis.com%2Fcss%3Ffamily%3DArchitects%2BDaughter;" vertex="1" parent="T8L3gJOPpO_TKHeS3PGI-141">
          <mxGeometry width="52" height="62.027027027027025" as="geometry" />
        </mxCell>
        <mxCell id="T8L3gJOPpO_TKHeS3PGI-143" value="Html,css&lt;div&gt;,js&lt;/div&gt;" style="whiteSpace=wrap;html=1;shape=mxgraph.basic.document;hachureGap=4;fontFamily=Architects Daughter;fontSource=https%3A%2F%2Ffonts.googleapis.com%2Fcss%3Ffamily%3DArchitects%2BDaughter;" vertex="1" parent="T8L3gJOPpO_TKHeS3PGI-141">
          <mxGeometry x="10" y="10" width="52" height="62.027027027027025" as="geometry" />
        </mxCell>
        <mxCell id="T8L3gJOPpO_TKHeS3PGI-144" value="Html,css&lt;div&gt;,js&lt;/div&gt;" style="whiteSpace=wrap;html=1;shape=mxgraph.basic.document;hachureGap=4;fontFamily=Architects Daughter;fontSource=https%3A%2F%2Ffonts.googleapis.com%2Fcss%3Ffamily%3DArchitects%2BDaughter;" vertex="1" parent="T8L3gJOPpO_TKHeS3PGI-141">
          <mxGeometry x="20" y="20" width="52" height="62.027027027027025" as="geometry" />
        </mxCell>
        <mxCell id="T8L3gJOPpO_TKHeS3PGI-145" value="Html,css&lt;div&gt;,js&lt;/div&gt;" style="whiteSpace=wrap;html=1;shape=mxgraph.basic.document;hachureGap=4;fontFamily=Architects Daughter;fontSource=https%3A%2F%2Ffonts.googleapis.com%2Fcss%3Ffamily%3DArchitects%2BDaughter;" vertex="1" parent="T8L3gJOPpO_TKHeS3PGI-141">
          <mxGeometry x="30" y="30" width="52" height="62.027027027027025" as="geometry" />
        </mxCell>
        <mxCell id="T8L3gJOPpO_TKHeS3PGI-146" value="" style="group" vertex="1" connectable="0" parent="T8L3gJOPpO_TKHeS3PGI-140">
          <mxGeometry x="96" y="4" width="82" height="92.02702702702703" as="geometry" />
        </mxCell>
        <mxCell id="T8L3gJOPpO_TKHeS3PGI-147" value="Html,css&lt;div&gt;,js&lt;/div&gt;" style="whiteSpace=wrap;html=1;shape=mxgraph.basic.document;hachureGap=4;fontFamily=Architects Daughter;fontSource=https%3A%2F%2Ffonts.googleapis.com%2Fcss%3Ffamily%3DArchitects%2BDaughter;" vertex="1" parent="T8L3gJOPpO_TKHeS3PGI-146">
          <mxGeometry width="52" height="62.027027027027025" as="geometry" />
        </mxCell>
        <mxCell id="T8L3gJOPpO_TKHeS3PGI-148" value="Html,css&lt;div&gt;,js&lt;/div&gt;" style="whiteSpace=wrap;html=1;shape=mxgraph.basic.document;hachureGap=4;fontFamily=Architects Daughter;fontSource=https%3A%2F%2Ffonts.googleapis.com%2Fcss%3Ffamily%3DArchitects%2BDaughter;" vertex="1" parent="T8L3gJOPpO_TKHeS3PGI-146">
          <mxGeometry x="10" y="10" width="52" height="62.027027027027025" as="geometry" />
        </mxCell>
        <mxCell id="T8L3gJOPpO_TKHeS3PGI-149" value="Html,css&lt;div&gt;,js&lt;/div&gt;" style="whiteSpace=wrap;html=1;shape=mxgraph.basic.document;hachureGap=4;fontFamily=Architects Daughter;fontSource=https%3A%2F%2Ffonts.googleapis.com%2Fcss%3Ffamily%3DArchitects%2BDaughter;" vertex="1" parent="T8L3gJOPpO_TKHeS3PGI-146">
          <mxGeometry x="20" y="20" width="52" height="62.027027027027025" as="geometry" />
        </mxCell>
        <mxCell id="T8L3gJOPpO_TKHeS3PGI-150" value="Html,css&lt;div&gt;,js&lt;/div&gt;" style="whiteSpace=wrap;html=1;shape=mxgraph.basic.document;hachureGap=4;fontFamily=Architects Daughter;fontSource=https%3A%2F%2Ffonts.googleapis.com%2Fcss%3Ffamily%3DArchitects%2BDaughter;" vertex="1" parent="T8L3gJOPpO_TKHeS3PGI-146">
          <mxGeometry x="30" y="30" width="52" height="62.027027027027025" as="geometry" />
        </mxCell>
        <mxCell id="T8L3gJOPpO_TKHeS3PGI-151" value="" style="group" vertex="1" connectable="0" parent="T8L3gJOPpO_TKHeS3PGI-140">
          <mxGeometry x="195" y="4" width="82" height="92.02702702702703" as="geometry" />
        </mxCell>
        <mxCell id="T8L3gJOPpO_TKHeS3PGI-152" value="Html,css&lt;div&gt;,js&lt;/div&gt;" style="whiteSpace=wrap;html=1;shape=mxgraph.basic.document;hachureGap=4;fontFamily=Architects Daughter;fontSource=https%3A%2F%2Ffonts.googleapis.com%2Fcss%3Ffamily%3DArchitects%2BDaughter;" vertex="1" parent="T8L3gJOPpO_TKHeS3PGI-151">
          <mxGeometry width="52" height="62.027027027027025" as="geometry" />
        </mxCell>
        <mxCell id="T8L3gJOPpO_TKHeS3PGI-153" value="Html,css&lt;div&gt;,js&lt;/div&gt;" style="whiteSpace=wrap;html=1;shape=mxgraph.basic.document;hachureGap=4;fontFamily=Architects Daughter;fontSource=https%3A%2F%2Ffonts.googleapis.com%2Fcss%3Ffamily%3DArchitects%2BDaughter;" vertex="1" parent="T8L3gJOPpO_TKHeS3PGI-151">
          <mxGeometry x="10" y="10" width="52" height="62.027027027027025" as="geometry" />
        </mxCell>
        <mxCell id="T8L3gJOPpO_TKHeS3PGI-154" value="Html,css&lt;div&gt;,js&lt;/div&gt;" style="whiteSpace=wrap;html=1;shape=mxgraph.basic.document;hachureGap=4;fontFamily=Architects Daughter;fontSource=https%3A%2F%2Ffonts.googleapis.com%2Fcss%3Ffamily%3DArchitects%2BDaughter;" vertex="1" parent="T8L3gJOPpO_TKHeS3PGI-151">
          <mxGeometry x="20" y="20" width="52" height="62.027027027027025" as="geometry" />
        </mxCell>
        <mxCell id="T8L3gJOPpO_TKHeS3PGI-155" value="Html,css&lt;div&gt;,js&lt;/div&gt;" style="whiteSpace=wrap;html=1;shape=mxgraph.basic.document;hachureGap=4;fontFamily=Architects Daughter;fontSource=https%3A%2F%2Ffonts.googleapis.com%2Fcss%3Ffamily%3DArchitects%2BDaughter;" vertex="1" parent="T8L3gJOPpO_TKHeS3PGI-151">
          <mxGeometry x="30" y="30" width="52" height="62.027027027027025" as="geometry" />
        </mxCell>
        <mxCell id="T8L3gJOPpO_TKHeS3PGI-156" value="" style="group" vertex="1" connectable="0" parent="T8L3gJOPpO_TKHeS3PGI-140">
          <mxGeometry x="287" y="4" width="82" height="92.02702702702703" as="geometry" />
        </mxCell>
        <mxCell id="T8L3gJOPpO_TKHeS3PGI-157" value="Html,css&lt;div&gt;,js&lt;/div&gt;" style="whiteSpace=wrap;html=1;shape=mxgraph.basic.document;hachureGap=4;fontFamily=Architects Daughter;fontSource=https%3A%2F%2Ffonts.googleapis.com%2Fcss%3Ffamily%3DArchitects%2BDaughter;" vertex="1" parent="T8L3gJOPpO_TKHeS3PGI-156">
          <mxGeometry width="52" height="62.027027027027025" as="geometry" />
        </mxCell>
        <mxCell id="T8L3gJOPpO_TKHeS3PGI-158" value="Html,css&lt;div&gt;,js&lt;/div&gt;" style="whiteSpace=wrap;html=1;shape=mxgraph.basic.document;hachureGap=4;fontFamily=Architects Daughter;fontSource=https%3A%2F%2Ffonts.googleapis.com%2Fcss%3Ffamily%3DArchitects%2BDaughter;" vertex="1" parent="T8L3gJOPpO_TKHeS3PGI-156">
          <mxGeometry x="10" y="10" width="52" height="62.027027027027025" as="geometry" />
        </mxCell>
        <mxCell id="T8L3gJOPpO_TKHeS3PGI-159" value="Html,css&lt;div&gt;,js&lt;/div&gt;" style="whiteSpace=wrap;html=1;shape=mxgraph.basic.document;hachureGap=4;fontFamily=Architects Daughter;fontSource=https%3A%2F%2Ffonts.googleapis.com%2Fcss%3Ffamily%3DArchitects%2BDaughter;" vertex="1" parent="T8L3gJOPpO_TKHeS3PGI-156">
          <mxGeometry x="20" y="20" width="52" height="62.027027027027025" as="geometry" />
        </mxCell>
        <mxCell id="T8L3gJOPpO_TKHeS3PGI-160" value="Html,css&lt;div&gt;,js&lt;/div&gt;" style="whiteSpace=wrap;html=1;shape=mxgraph.basic.document;hachureGap=4;fontFamily=Architects Daughter;fontSource=https%3A%2F%2Ffonts.googleapis.com%2Fcss%3Ffamily%3DArchitects%2BDaughter;" vertex="1" parent="T8L3gJOPpO_TKHeS3PGI-156">
          <mxGeometry x="30" y="30" width="52" height="62.027027027027025" as="geometry" />
        </mxCell>
        <mxCell id="T8L3gJOPpO_TKHeS3PGI-176" value="" style="group" vertex="1" connectable="0" parent="1">
          <mxGeometry x="-433" y="427" width="390" height="85" as="geometry" />
        </mxCell>
        <mxCell id="T8L3gJOPpO_TKHeS3PGI-110" value="" style="group" vertex="1" connectable="0" parent="T8L3gJOPpO_TKHeS3PGI-176">
          <mxGeometry width="82" height="85" as="geometry" />
        </mxCell>
        <mxCell id="T8L3gJOPpO_TKHeS3PGI-111" value=".iptnb file" style="whiteSpace=wrap;html=1;shape=mxgraph.basic.document;hachureGap=4;fontFamily=Architects Daughter;fontSource=https%3A%2F%2Ffonts.googleapis.com%2Fcss%3Ffamily%3DArchitects%2BDaughter;" vertex="1" parent="T8L3gJOPpO_TKHeS3PGI-110">
          <mxGeometry width="52" height="62.027027027027025" as="geometry" />
        </mxCell>
        <mxCell id="T8L3gJOPpO_TKHeS3PGI-112" value=".iptnb file" style="whiteSpace=wrap;html=1;shape=mxgraph.basic.document;hachureGap=4;fontFamily=Architects Daughter;fontSource=https%3A%2F%2Ffonts.googleapis.com%2Fcss%3Ffamily%3DArchitects%2BDaughter;" vertex="1" parent="T8L3gJOPpO_TKHeS3PGI-110">
          <mxGeometry x="10" y="7.657657657657658" width="52" height="62.027027027027025" as="geometry" />
        </mxCell>
        <mxCell id="T8L3gJOPpO_TKHeS3PGI-113" value=".iptnb file" style="whiteSpace=wrap;html=1;shape=mxgraph.basic.document;hachureGap=4;fontFamily=Architects Daughter;fontSource=https%3A%2F%2Ffonts.googleapis.com%2Fcss%3Ffamily%3DArchitects%2BDaughter;" vertex="1" parent="T8L3gJOPpO_TKHeS3PGI-110">
          <mxGeometry x="20" y="15.315315315315315" width="52" height="62.027027027027025" as="geometry" />
        </mxCell>
        <mxCell id="T8L3gJOPpO_TKHeS3PGI-114" value=".iptnb file" style="whiteSpace=wrap;html=1;shape=mxgraph.basic.document;hachureGap=4;fontFamily=Architects Daughter;fontSource=https%3A%2F%2Ffonts.googleapis.com%2Fcss%3Ffamily%3DArchitects%2BDaughter;" vertex="1" parent="T8L3gJOPpO_TKHeS3PGI-110">
          <mxGeometry x="30" y="22.972972972972972" width="52" height="62.027027027027025" as="geometry" />
        </mxCell>
        <mxCell id="T8L3gJOPpO_TKHeS3PGI-161" value="" style="group" vertex="1" connectable="0" parent="T8L3gJOPpO_TKHeS3PGI-176">
          <mxGeometry x="96" width="82" height="85" as="geometry" />
        </mxCell>
        <mxCell id="T8L3gJOPpO_TKHeS3PGI-162" value=".iptnb file" style="whiteSpace=wrap;html=1;shape=mxgraph.basic.document;hachureGap=4;fontFamily=Architects Daughter;fontSource=https%3A%2F%2Ffonts.googleapis.com%2Fcss%3Ffamily%3DArchitects%2BDaughter;" vertex="1" parent="T8L3gJOPpO_TKHeS3PGI-161">
          <mxGeometry width="52" height="62.027027027027025" as="geometry" />
        </mxCell>
        <mxCell id="T8L3gJOPpO_TKHeS3PGI-163" value=".iptnb file" style="whiteSpace=wrap;html=1;shape=mxgraph.basic.document;hachureGap=4;fontFamily=Architects Daughter;fontSource=https%3A%2F%2Ffonts.googleapis.com%2Fcss%3Ffamily%3DArchitects%2BDaughter;" vertex="1" parent="T8L3gJOPpO_TKHeS3PGI-161">
          <mxGeometry x="10" y="7.657657657657658" width="52" height="62.027027027027025" as="geometry" />
        </mxCell>
        <mxCell id="T8L3gJOPpO_TKHeS3PGI-164" value=".iptnb file" style="whiteSpace=wrap;html=1;shape=mxgraph.basic.document;hachureGap=4;fontFamily=Architects Daughter;fontSource=https%3A%2F%2Ffonts.googleapis.com%2Fcss%3Ffamily%3DArchitects%2BDaughter;" vertex="1" parent="T8L3gJOPpO_TKHeS3PGI-161">
          <mxGeometry x="20" y="15.315315315315315" width="52" height="62.027027027027025" as="geometry" />
        </mxCell>
        <mxCell id="T8L3gJOPpO_TKHeS3PGI-165" value=".iptnb file" style="whiteSpace=wrap;html=1;shape=mxgraph.basic.document;hachureGap=4;fontFamily=Architects Daughter;fontSource=https%3A%2F%2Ffonts.googleapis.com%2Fcss%3Ffamily%3DArchitects%2BDaughter;" vertex="1" parent="T8L3gJOPpO_TKHeS3PGI-161">
          <mxGeometry x="30" y="22.972972972972972" width="52" height="62.027027027027025" as="geometry" />
        </mxCell>
        <mxCell id="T8L3gJOPpO_TKHeS3PGI-166" value="" style="group" vertex="1" connectable="0" parent="T8L3gJOPpO_TKHeS3PGI-176">
          <mxGeometry x="205" width="82" height="85" as="geometry" />
        </mxCell>
        <mxCell id="T8L3gJOPpO_TKHeS3PGI-167" value=".iptnb file" style="whiteSpace=wrap;html=1;shape=mxgraph.basic.document;hachureGap=4;fontFamily=Architects Daughter;fontSource=https%3A%2F%2Ffonts.googleapis.com%2Fcss%3Ffamily%3DArchitects%2BDaughter;" vertex="1" parent="T8L3gJOPpO_TKHeS3PGI-166">
          <mxGeometry width="52" height="62.027027027027025" as="geometry" />
        </mxCell>
        <mxCell id="T8L3gJOPpO_TKHeS3PGI-168" value=".iptnb file" style="whiteSpace=wrap;html=1;shape=mxgraph.basic.document;hachureGap=4;fontFamily=Architects Daughter;fontSource=https%3A%2F%2Ffonts.googleapis.com%2Fcss%3Ffamily%3DArchitects%2BDaughter;" vertex="1" parent="T8L3gJOPpO_TKHeS3PGI-166">
          <mxGeometry x="10" y="7.657657657657658" width="52" height="62.027027027027025" as="geometry" />
        </mxCell>
        <mxCell id="T8L3gJOPpO_TKHeS3PGI-169" value=".iptnb file" style="whiteSpace=wrap;html=1;shape=mxgraph.basic.document;hachureGap=4;fontFamily=Architects Daughter;fontSource=https%3A%2F%2Ffonts.googleapis.com%2Fcss%3Ffamily%3DArchitects%2BDaughter;" vertex="1" parent="T8L3gJOPpO_TKHeS3PGI-166">
          <mxGeometry x="20" y="15.315315315315315" width="52" height="62.027027027027025" as="geometry" />
        </mxCell>
        <mxCell id="T8L3gJOPpO_TKHeS3PGI-170" value=".iptnb file" style="whiteSpace=wrap;html=1;shape=mxgraph.basic.document;hachureGap=4;fontFamily=Architects Daughter;fontSource=https%3A%2F%2Ffonts.googleapis.com%2Fcss%3Ffamily%3DArchitects%2BDaughter;" vertex="1" parent="T8L3gJOPpO_TKHeS3PGI-166">
          <mxGeometry x="30" y="22.972972972972972" width="52" height="62.027027027027025" as="geometry" />
        </mxCell>
        <mxCell id="T8L3gJOPpO_TKHeS3PGI-171" value="" style="group" vertex="1" connectable="0" parent="T8L3gJOPpO_TKHeS3PGI-176">
          <mxGeometry x="308" width="82" height="85" as="geometry" />
        </mxCell>
        <mxCell id="T8L3gJOPpO_TKHeS3PGI-172" value=".iptnb file" style="whiteSpace=wrap;html=1;shape=mxgraph.basic.document;hachureGap=4;fontFamily=Architects Daughter;fontSource=https%3A%2F%2Ffonts.googleapis.com%2Fcss%3Ffamily%3DArchitects%2BDaughter;" vertex="1" parent="T8L3gJOPpO_TKHeS3PGI-171">
          <mxGeometry width="52" height="62.027027027027025" as="geometry" />
        </mxCell>
        <mxCell id="T8L3gJOPpO_TKHeS3PGI-173" value=".iptnb file" style="whiteSpace=wrap;html=1;shape=mxgraph.basic.document;hachureGap=4;fontFamily=Architects Daughter;fontSource=https%3A%2F%2Ffonts.googleapis.com%2Fcss%3Ffamily%3DArchitects%2BDaughter;" vertex="1" parent="T8L3gJOPpO_TKHeS3PGI-171">
          <mxGeometry x="10" y="7.657657657657658" width="52" height="62.027027027027025" as="geometry" />
        </mxCell>
        <mxCell id="T8L3gJOPpO_TKHeS3PGI-174" value=".iptnb file" style="whiteSpace=wrap;html=1;shape=mxgraph.basic.document;hachureGap=4;fontFamily=Architects Daughter;fontSource=https%3A%2F%2Ffonts.googleapis.com%2Fcss%3Ffamily%3DArchitects%2BDaughter;" vertex="1" parent="T8L3gJOPpO_TKHeS3PGI-171">
          <mxGeometry x="20" y="15.315315315315315" width="52" height="62.027027027027025" as="geometry" />
        </mxCell>
        <mxCell id="T8L3gJOPpO_TKHeS3PGI-175" value=".iptnb file" style="whiteSpace=wrap;html=1;shape=mxgraph.basic.document;hachureGap=4;fontFamily=Architects Daughter;fontSource=https%3A%2F%2Ffonts.googleapis.com%2Fcss%3Ffamily%3DArchitects%2BDaughter;" vertex="1" parent="T8L3gJOPpO_TKHeS3PGI-171">
          <mxGeometry x="30" y="22.972972972972972" width="52" height="62.027027027027025" as="geometry" />
        </mxCell>
        <mxCell id="T8L3gJOPpO_TKHeS3PGI-177" value="" style="group" vertex="1" connectable="0" parent="1">
          <mxGeometry x="4" y="424" width="390" height="85" as="geometry" />
        </mxCell>
        <mxCell id="T8L3gJOPpO_TKHeS3PGI-178" value="" style="group" vertex="1" connectable="0" parent="T8L3gJOPpO_TKHeS3PGI-177">
          <mxGeometry width="82" height="85" as="geometry" />
        </mxCell>
        <mxCell id="T8L3gJOPpO_TKHeS3PGI-179" value=".iptnb file" style="whiteSpace=wrap;html=1;shape=mxgraph.basic.document;hachureGap=4;fontFamily=Architects Daughter;fontSource=https%3A%2F%2Ffonts.googleapis.com%2Fcss%3Ffamily%3DArchitects%2BDaughter;" vertex="1" parent="T8L3gJOPpO_TKHeS3PGI-178">
          <mxGeometry width="52" height="62.027027027027025" as="geometry" />
        </mxCell>
        <mxCell id="T8L3gJOPpO_TKHeS3PGI-180" value=".iptnb file" style="whiteSpace=wrap;html=1;shape=mxgraph.basic.document;hachureGap=4;fontFamily=Architects Daughter;fontSource=https%3A%2F%2Ffonts.googleapis.com%2Fcss%3Ffamily%3DArchitects%2BDaughter;" vertex="1" parent="T8L3gJOPpO_TKHeS3PGI-178">
          <mxGeometry x="10" y="7.657657657657658" width="52" height="62.027027027027025" as="geometry" />
        </mxCell>
        <mxCell id="T8L3gJOPpO_TKHeS3PGI-181" value=".iptnb file" style="whiteSpace=wrap;html=1;shape=mxgraph.basic.document;hachureGap=4;fontFamily=Architects Daughter;fontSource=https%3A%2F%2Ffonts.googleapis.com%2Fcss%3Ffamily%3DArchitects%2BDaughter;" vertex="1" parent="T8L3gJOPpO_TKHeS3PGI-178">
          <mxGeometry x="20" y="15.315315315315315" width="52" height="62.027027027027025" as="geometry" />
        </mxCell>
        <mxCell id="T8L3gJOPpO_TKHeS3PGI-182" value=".iptnb file" style="whiteSpace=wrap;html=1;shape=mxgraph.basic.document;hachureGap=4;fontFamily=Architects Daughter;fontSource=https%3A%2F%2Ffonts.googleapis.com%2Fcss%3Ffamily%3DArchitects%2BDaughter;" vertex="1" parent="T8L3gJOPpO_TKHeS3PGI-178">
          <mxGeometry x="30" y="22.972972972972972" width="52" height="62.027027027027025" as="geometry" />
        </mxCell>
        <mxCell id="T8L3gJOPpO_TKHeS3PGI-183" value="" style="group" vertex="1" connectable="0" parent="T8L3gJOPpO_TKHeS3PGI-177">
          <mxGeometry x="96" width="82" height="85" as="geometry" />
        </mxCell>
        <mxCell id="T8L3gJOPpO_TKHeS3PGI-184" value=".iptnb file" style="whiteSpace=wrap;html=1;shape=mxgraph.basic.document;hachureGap=4;fontFamily=Architects Daughter;fontSource=https%3A%2F%2Ffonts.googleapis.com%2Fcss%3Ffamily%3DArchitects%2BDaughter;" vertex="1" parent="T8L3gJOPpO_TKHeS3PGI-183">
          <mxGeometry width="52" height="62.027027027027025" as="geometry" />
        </mxCell>
        <mxCell id="T8L3gJOPpO_TKHeS3PGI-185" value=".iptnb file" style="whiteSpace=wrap;html=1;shape=mxgraph.basic.document;hachureGap=4;fontFamily=Architects Daughter;fontSource=https%3A%2F%2Ffonts.googleapis.com%2Fcss%3Ffamily%3DArchitects%2BDaughter;" vertex="1" parent="T8L3gJOPpO_TKHeS3PGI-183">
          <mxGeometry x="10" y="7.657657657657658" width="52" height="62.027027027027025" as="geometry" />
        </mxCell>
        <mxCell id="T8L3gJOPpO_TKHeS3PGI-186" value=".iptnb file" style="whiteSpace=wrap;html=1;shape=mxgraph.basic.document;hachureGap=4;fontFamily=Architects Daughter;fontSource=https%3A%2F%2Ffonts.googleapis.com%2Fcss%3Ffamily%3DArchitects%2BDaughter;" vertex="1" parent="T8L3gJOPpO_TKHeS3PGI-183">
          <mxGeometry x="20" y="15.315315315315315" width="52" height="62.027027027027025" as="geometry" />
        </mxCell>
        <mxCell id="T8L3gJOPpO_TKHeS3PGI-187" value=".iptnb file" style="whiteSpace=wrap;html=1;shape=mxgraph.basic.document;hachureGap=4;fontFamily=Architects Daughter;fontSource=https%3A%2F%2Ffonts.googleapis.com%2Fcss%3Ffamily%3DArchitects%2BDaughter;" vertex="1" parent="T8L3gJOPpO_TKHeS3PGI-183">
          <mxGeometry x="30" y="22.972972972972972" width="52" height="62.027027027027025" as="geometry" />
        </mxCell>
        <mxCell id="T8L3gJOPpO_TKHeS3PGI-188" value="" style="group" vertex="1" connectable="0" parent="T8L3gJOPpO_TKHeS3PGI-177">
          <mxGeometry x="205" width="82" height="85" as="geometry" />
        </mxCell>
        <mxCell id="T8L3gJOPpO_TKHeS3PGI-189" value=".iptnb file" style="whiteSpace=wrap;html=1;shape=mxgraph.basic.document;hachureGap=4;fontFamily=Architects Daughter;fontSource=https%3A%2F%2Ffonts.googleapis.com%2Fcss%3Ffamily%3DArchitects%2BDaughter;" vertex="1" parent="T8L3gJOPpO_TKHeS3PGI-188">
          <mxGeometry width="52" height="62.027027027027025" as="geometry" />
        </mxCell>
        <mxCell id="T8L3gJOPpO_TKHeS3PGI-190" value=".iptnb file" style="whiteSpace=wrap;html=1;shape=mxgraph.basic.document;hachureGap=4;fontFamily=Architects Daughter;fontSource=https%3A%2F%2Ffonts.googleapis.com%2Fcss%3Ffamily%3DArchitects%2BDaughter;" vertex="1" parent="T8L3gJOPpO_TKHeS3PGI-188">
          <mxGeometry x="10" y="7.657657657657658" width="52" height="62.027027027027025" as="geometry" />
        </mxCell>
        <mxCell id="T8L3gJOPpO_TKHeS3PGI-191" value=".iptnb file" style="whiteSpace=wrap;html=1;shape=mxgraph.basic.document;hachureGap=4;fontFamily=Architects Daughter;fontSource=https%3A%2F%2Ffonts.googleapis.com%2Fcss%3Ffamily%3DArchitects%2BDaughter;" vertex="1" parent="T8L3gJOPpO_TKHeS3PGI-188">
          <mxGeometry x="20" y="15.315315315315315" width="52" height="62.027027027027025" as="geometry" />
        </mxCell>
        <mxCell id="T8L3gJOPpO_TKHeS3PGI-192" value=".iptnb file" style="whiteSpace=wrap;html=1;shape=mxgraph.basic.document;hachureGap=4;fontFamily=Architects Daughter;fontSource=https%3A%2F%2Ffonts.googleapis.com%2Fcss%3Ffamily%3DArchitects%2BDaughter;" vertex="1" parent="T8L3gJOPpO_TKHeS3PGI-188">
          <mxGeometry x="30" y="22.972972972972972" width="52" height="62.027027027027025" as="geometry" />
        </mxCell>
        <mxCell id="T8L3gJOPpO_TKHeS3PGI-193" value="" style="group" vertex="1" connectable="0" parent="T8L3gJOPpO_TKHeS3PGI-177">
          <mxGeometry x="308" width="82" height="85" as="geometry" />
        </mxCell>
        <mxCell id="T8L3gJOPpO_TKHeS3PGI-194" value=".iptnb file" style="whiteSpace=wrap;html=1;shape=mxgraph.basic.document;hachureGap=4;fontFamily=Architects Daughter;fontSource=https%3A%2F%2Ffonts.googleapis.com%2Fcss%3Ffamily%3DArchitects%2BDaughter;" vertex="1" parent="T8L3gJOPpO_TKHeS3PGI-193">
          <mxGeometry width="52" height="62.027027027027025" as="geometry" />
        </mxCell>
        <mxCell id="T8L3gJOPpO_TKHeS3PGI-195" value=".iptnb file" style="whiteSpace=wrap;html=1;shape=mxgraph.basic.document;hachureGap=4;fontFamily=Architects Daughter;fontSource=https%3A%2F%2Ffonts.googleapis.com%2Fcss%3Ffamily%3DArchitects%2BDaughter;" vertex="1" parent="T8L3gJOPpO_TKHeS3PGI-193">
          <mxGeometry x="10" y="7.657657657657658" width="52" height="62.027027027027025" as="geometry" />
        </mxCell>
        <mxCell id="T8L3gJOPpO_TKHeS3PGI-196" value=".iptnb file" style="whiteSpace=wrap;html=1;shape=mxgraph.basic.document;hachureGap=4;fontFamily=Architects Daughter;fontSource=https%3A%2F%2Ffonts.googleapis.com%2Fcss%3Ffamily%3DArchitects%2BDaughter;" vertex="1" parent="T8L3gJOPpO_TKHeS3PGI-193">
          <mxGeometry x="20" y="15.315315315315315" width="52" height="62.027027027027025" as="geometry" />
        </mxCell>
        <mxCell id="T8L3gJOPpO_TKHeS3PGI-197" value=".iptnb file" style="whiteSpace=wrap;html=1;shape=mxgraph.basic.document;hachureGap=4;fontFamily=Architects Daughter;fontSource=https%3A%2F%2Ffonts.googleapis.com%2Fcss%3Ffamily%3DArchitects%2BDaughter;" vertex="1" parent="T8L3gJOPpO_TKHeS3PGI-193">
          <mxGeometry x="30" y="22.972972972972972" width="52" height="62.027027027027025" as="geometry" />
        </mxCell>
        <mxCell id="T8L3gJOPpO_TKHeS3PGI-198" value="" style="endArrow=classic;html=1;rounded=1;hachureGap=4;fontFamily=Architects Daughter;fontSource=https%3A%2F%2Ffonts.googleapis.com%2Fcss%3Ffamily%3DArchitects%2BDaughter;fontSize=12;startSize=8;endSize=8;entryX=0.5;entryY=1;entryDx=0;entryDy=0;edgeStyle=orthogonalEdgeStyle;curved=0;entryPerimeter=0;exitX=0.5;exitY=0;exitDx=0;exitDy=0;exitPerimeter=0;" edge="1" parent="1" source="T8L3gJOPpO_TKHeS3PGI-111" target="T8L3gJOPpO_TKHeS3PGI-118">
          <mxGeometry width="50" height="50" relative="1" as="geometry">
            <mxPoint x="-422" y="387" as="sourcePoint" />
            <mxPoint x="-560" y="503" as="targetPoint" />
          </mxGeometry>
        </mxCell>
        <mxCell id="T8L3gJOPpO_TKHeS3PGI-199" value="Compile" style="edgeLabel;html=1;align=center;verticalAlign=middle;resizable=0;points=[];fontSize=12;sketch=1;hachureGap=4;jiggle=2;curveFitting=1;fontFamily=Architects Daughter;fontSource=https%3A%2F%2Ffonts.googleapis.com%2Fcss%3Ffamily%3DArchitects%2BDaughter;" vertex="1" connectable="0" parent="T8L3gJOPpO_TKHeS3PGI-198">
          <mxGeometry x="0.2544" y="2" relative="1" as="geometry">
            <mxPoint as="offset" />
          </mxGeometry>
        </mxCell>
        <mxCell id="T8L3gJOPpO_TKHeS3PGI-200" value="" style="endArrow=classic;html=1;rounded=1;hachureGap=4;fontFamily=Architects Daughter;fontSource=https%3A%2F%2Ffonts.googleapis.com%2Fcss%3Ffamily%3DArchitects%2BDaughter;fontSize=12;startSize=8;endSize=8;entryX=0.5;entryY=1;entryDx=0;entryDy=0;edgeStyle=orthogonalEdgeStyle;curved=0;entryPerimeter=0;exitX=0.362;exitY=-0.012;exitDx=0;exitDy=0;exitPerimeter=0;" edge="1" parent="1" source="T8L3gJOPpO_TKHeS3PGI-162" target="T8L3gJOPpO_TKHeS3PGI-128">
          <mxGeometry width="50" height="50" relative="1" as="geometry">
            <mxPoint x="-405" y="437" as="sourcePoint" />
            <mxPoint x="-360" y="374" as="targetPoint" />
          </mxGeometry>
        </mxCell>
        <mxCell id="T8L3gJOPpO_TKHeS3PGI-201" value="Compile" style="edgeLabel;html=1;align=center;verticalAlign=middle;resizable=0;points=[];fontSize=12;sketch=1;hachureGap=4;jiggle=2;curveFitting=1;fontFamily=Architects Daughter;fontSource=https%3A%2F%2Ffonts.googleapis.com%2Fcss%3Ffamily%3DArchitects%2BDaughter;" vertex="1" connectable="0" parent="T8L3gJOPpO_TKHeS3PGI-200">
          <mxGeometry x="0.2544" y="2" relative="1" as="geometry">
            <mxPoint as="offset" />
          </mxGeometry>
        </mxCell>
        <mxCell id="T8L3gJOPpO_TKHeS3PGI-202" value="" style="endArrow=classic;html=1;rounded=1;hachureGap=4;fontFamily=Architects Daughter;fontSource=https%3A%2F%2Ffonts.googleapis.com%2Fcss%3Ffamily%3DArchitects%2BDaughter;fontSize=12;startSize=8;endSize=8;entryX=0.5;entryY=1;entryDx=0;entryDy=0;edgeStyle=orthogonalEdgeStyle;curved=0;entryPerimeter=0;exitX=0.5;exitY=0;exitDx=0;exitDy=0;exitPerimeter=0;" edge="1" parent="1" source="T8L3gJOPpO_TKHeS3PGI-167" target="T8L3gJOPpO_TKHeS3PGI-133">
          <mxGeometry width="50" height="50" relative="1" as="geometry">
            <mxPoint x="-316" y="436" as="sourcePoint" />
            <mxPoint x="-264" y="378" as="targetPoint" />
          </mxGeometry>
        </mxCell>
        <mxCell id="T8L3gJOPpO_TKHeS3PGI-203" value="Compile" style="edgeLabel;html=1;align=center;verticalAlign=middle;resizable=0;points=[];fontSize=12;sketch=1;hachureGap=4;jiggle=2;curveFitting=1;fontFamily=Architects Daughter;fontSource=https%3A%2F%2Ffonts.googleapis.com%2Fcss%3Ffamily%3DArchitects%2BDaughter;" vertex="1" connectable="0" parent="T8L3gJOPpO_TKHeS3PGI-202">
          <mxGeometry x="0.2544" y="2" relative="1" as="geometry">
            <mxPoint as="offset" />
          </mxGeometry>
        </mxCell>
        <mxCell id="T8L3gJOPpO_TKHeS3PGI-204" value="" style="endArrow=classic;html=1;rounded=1;hachureGap=4;fontFamily=Architects Daughter;fontSource=https%3A%2F%2Ffonts.googleapis.com%2Fcss%3Ffamily%3DArchitects%2BDaughter;fontSize=12;startSize=8;endSize=8;entryX=0.5;entryY=1;entryDx=0;entryDy=0;edgeStyle=orthogonalEdgeStyle;curved=0;entryPerimeter=0;exitX=0.5;exitY=0;exitDx=0;exitDy=0;exitPerimeter=0;" edge="1" parent="1" source="T8L3gJOPpO_TKHeS3PGI-172" target="T8L3gJOPpO_TKHeS3PGI-138">
          <mxGeometry width="50" height="50" relative="1" as="geometry">
            <mxPoint x="-200" y="437" as="sourcePoint" />
            <mxPoint x="-165" y="378" as="targetPoint" />
          </mxGeometry>
        </mxCell>
        <mxCell id="T8L3gJOPpO_TKHeS3PGI-205" value="Compile" style="edgeLabel;html=1;align=center;verticalAlign=middle;resizable=0;points=[];fontSize=12;sketch=1;hachureGap=4;jiggle=2;curveFitting=1;fontFamily=Architects Daughter;fontSource=https%3A%2F%2Ffonts.googleapis.com%2Fcss%3Ffamily%3DArchitects%2BDaughter;" vertex="1" connectable="0" parent="T8L3gJOPpO_TKHeS3PGI-204">
          <mxGeometry x="0.2544" y="2" relative="1" as="geometry">
            <mxPoint as="offset" />
          </mxGeometry>
        </mxCell>
        <mxCell id="T8L3gJOPpO_TKHeS3PGI-207" value="" style="endArrow=classic;html=1;rounded=1;hachureGap=4;fontFamily=Architects Daughter;fontSource=https%3A%2F%2Ffonts.googleapis.com%2Fcss%3Ffamily%3DArchitects%2BDaughter;fontSize=12;startSize=8;endSize=8;entryX=0.5;entryY=1;entryDx=0;entryDy=0;edgeStyle=orthogonalEdgeStyle;curved=0;entryPerimeter=0;exitX=0.5;exitY=0;exitDx=0;exitDy=0;exitPerimeter=0;" edge="1" parent="1" source="T8L3gJOPpO_TKHeS3PGI-179" target="T8L3gJOPpO_TKHeS3PGI-145">
          <mxGeometry width="50" height="50" relative="1" as="geometry">
            <mxPoint x="-97" y="437" as="sourcePoint" />
            <mxPoint x="-73" y="378" as="targetPoint" />
          </mxGeometry>
        </mxCell>
        <mxCell id="T8L3gJOPpO_TKHeS3PGI-208" value="Compile" style="edgeLabel;html=1;align=center;verticalAlign=middle;resizable=0;points=[];fontSize=12;sketch=1;hachureGap=4;jiggle=2;curveFitting=1;fontFamily=Architects Daughter;fontSource=https%3A%2F%2Ffonts.googleapis.com%2Fcss%3Ffamily%3DArchitects%2BDaughter;" vertex="1" connectable="0" parent="T8L3gJOPpO_TKHeS3PGI-207">
          <mxGeometry x="0.2544" y="2" relative="1" as="geometry">
            <mxPoint as="offset" />
          </mxGeometry>
        </mxCell>
        <mxCell id="T8L3gJOPpO_TKHeS3PGI-209" value="" style="endArrow=classic;html=1;rounded=1;hachureGap=4;fontFamily=Architects Daughter;fontSource=https%3A%2F%2Ffonts.googleapis.com%2Fcss%3Ffamily%3DArchitects%2BDaughter;fontSize=12;startSize=8;endSize=8;entryX=0.5;entryY=1;entryDx=0;entryDy=0;edgeStyle=orthogonalEdgeStyle;curved=0;entryPerimeter=0;exitX=0.5;exitY=0;exitDx=0;exitDy=0;exitPerimeter=0;" edge="1" parent="1" source="T8L3gJOPpO_TKHeS3PGI-184" target="T8L3gJOPpO_TKHeS3PGI-150">
          <mxGeometry width="50" height="50" relative="1" as="geometry">
            <mxPoint x="15" y="434" as="sourcePoint" />
            <mxPoint x="51" y="382" as="targetPoint" />
          </mxGeometry>
        </mxCell>
        <mxCell id="T8L3gJOPpO_TKHeS3PGI-210" value="Compile" style="edgeLabel;html=1;align=center;verticalAlign=middle;resizable=0;points=[];fontSize=12;sketch=1;hachureGap=4;jiggle=2;curveFitting=1;fontFamily=Architects Daughter;fontSource=https%3A%2F%2Ffonts.googleapis.com%2Fcss%3Ffamily%3DArchitects%2BDaughter;" vertex="1" connectable="0" parent="T8L3gJOPpO_TKHeS3PGI-209">
          <mxGeometry x="0.2544" y="2" relative="1" as="geometry">
            <mxPoint as="offset" />
          </mxGeometry>
        </mxCell>
        <mxCell id="T8L3gJOPpO_TKHeS3PGI-211" value="" style="endArrow=classic;html=1;rounded=1;hachureGap=4;fontFamily=Architects Daughter;fontSource=https%3A%2F%2Ffonts.googleapis.com%2Fcss%3Ffamily%3DArchitects%2BDaughter;fontSize=12;startSize=8;endSize=8;entryX=0.5;entryY=1;entryDx=0;entryDy=0;edgeStyle=orthogonalEdgeStyle;curved=0;entryPerimeter=0;exitX=0.5;exitY=0;exitDx=0;exitDy=0;exitPerimeter=0;" edge="1" parent="1" source="T8L3gJOPpO_TKHeS3PGI-189" target="T8L3gJOPpO_TKHeS3PGI-155">
          <mxGeometry width="50" height="50" relative="1" as="geometry">
            <mxPoint x="111" y="434" as="sourcePoint" />
            <mxPoint x="147" y="386" as="targetPoint" />
          </mxGeometry>
        </mxCell>
        <mxCell id="T8L3gJOPpO_TKHeS3PGI-212" value="Compile" style="edgeLabel;html=1;align=center;verticalAlign=middle;resizable=0;points=[];fontSize=12;sketch=1;hachureGap=4;jiggle=2;curveFitting=1;fontFamily=Architects Daughter;fontSource=https%3A%2F%2Ffonts.googleapis.com%2Fcss%3Ffamily%3DArchitects%2BDaughter;" vertex="1" connectable="0" parent="T8L3gJOPpO_TKHeS3PGI-211">
          <mxGeometry x="0.2544" y="2" relative="1" as="geometry">
            <mxPoint as="offset" />
          </mxGeometry>
        </mxCell>
        <mxCell id="T8L3gJOPpO_TKHeS3PGI-213" value="" style="endArrow=classic;html=1;rounded=1;hachureGap=4;fontFamily=Architects Daughter;fontSource=https%3A%2F%2Ffonts.googleapis.com%2Fcss%3Ffamily%3DArchitects%2BDaughter;fontSize=12;startSize=8;endSize=8;entryX=0.5;entryY=1;entryDx=0;entryDy=0;edgeStyle=orthogonalEdgeStyle;curved=0;entryPerimeter=0;exitX=0.5;exitY=0;exitDx=0;exitDy=0;exitPerimeter=0;" edge="1" parent="1" source="T8L3gJOPpO_TKHeS3PGI-194" target="T8L3gJOPpO_TKHeS3PGI-160">
          <mxGeometry width="50" height="50" relative="1" as="geometry">
            <mxPoint x="290" y="399" as="sourcePoint" />
            <mxPoint x="246" y="386" as="targetPoint" />
          </mxGeometry>
        </mxCell>
        <mxCell id="T8L3gJOPpO_TKHeS3PGI-214" value="Compile" style="edgeLabel;html=1;align=center;verticalAlign=middle;resizable=0;points=[];fontSize=12;sketch=1;hachureGap=4;jiggle=2;curveFitting=1;fontFamily=Architects Daughter;fontSource=https%3A%2F%2Ffonts.googleapis.com%2Fcss%3Ffamily%3DArchitects%2BDaughter;" vertex="1" connectable="0" parent="T8L3gJOPpO_TKHeS3PGI-213">
          <mxGeometry x="0.2544" y="2" relative="1" as="geometry">
            <mxPoint as="offset" />
          </mxGeometry>
        </mxCell>
      </root>
    </mxGraphModel>
  </diagram>
</mxfile>
